<svg width="390" height="844" xmlns="http://www.w3.org/2000/svg">
  <defs>
    <linearGradient id="bgMobile" x1="0%" y1="0%" x2="100%" y2="100%">
      <stop offset="0%" style="stop-color:#111827"/>
      <stop offset="100%" style="stop-color:#1f2937"/>
    </linearGradient>
    <linearGradient id="cyanMobile" x1="0%" y1="0%" x2="100%" y2="0%">
      <stop offset="0%" style="stop-color:#06b6d4"/>
      <stop offset="100%" style="stop-color:#8b5cf6"/>
    </linearGradient>
    <filter id="glowMobile">
      <feGaussianBlur stdDeviation="2" result="coloredBlur"/>
      <feMerge><feMergeNode in="coloredBlur"/><feMergeNode in="SourceGraphic"/></feMerge>
    </filter>
  </defs>
  
  <!-- Phone frame -->
  <rect width="390" height="844" rx="40" fill="#000"/>
  <rect x="5" y="5" width="380" height="834" rx="36" fill="url(#bgMobile)"/>
  
  <!-- Status bar -->
  <rect x="130" y="10" width="130" height="25" rx="12" fill="#000"/>
  <text x="350" y="25" font-family="Arial" font-size="12" fill="white" text-anchor="end">ฑฐ:ณฐ</text>
  <text x="30" y="25" font-family="Arial" font-size="12" fill="white">๐ถ ๐</text>
  
  <!-- Header -->
  <rect x="5" y="40" width="380" height="50" fill="#000" fill-opacity="0.3"/>
  <text x="20" y="72" font-family="Arial" font-size="16" font-weight="bold" fill="url(#cyanMobile)">๐ฎ SETI@Portalgraph</text>
  
  <!-- Mobile detection badge -->
  <rect x="15" y="100" width="360" height="35" rx="8" fill="#06b6d4" fill-opacity="0.1" stroke="#06b6d4" stroke-width="1"/>
  <text x="195" y="123" font-family="Arial" font-size="12" fill="#06b6d4" text-anchor="middle">๐ฑ ููุจุงู ุดูุงุณุง ุดุฏ - ุฏูุฑุจู ุฌูู ูุนุงู ูโุดูุฏ</text>
  
  <!-- 3D Scene -->
  <rect x="15" y="145" width="360" height="400" rx="10" fill="#000" fill-opacity="0.5"/>
  
  <!-- Grid -->
  <g opacity="0.3" stroke="#06b6d4" stroke-width="0.5">
    <line x1="50" y1="480" x2="340" y2="480"/>
    <line x1="70" y1="500" x2="320" y2="500"/>
    <line x1="90" y1="520" x2="300" y2="520"/>
    <line x1="195" y1="300" x2="50" y2="540"/>
    <line x1="195" y1="300" x2="130" y2="540"/>
    <line x1="195" y1="300" x2="260" y2="540"/>
    <line x1="195" y1="300" x2="340" y2="540"/>
  </g>
  
  <!-- 3D Character -->
  <g transform="translate(195, 370)" filter="url(#glowMobile)">
    <ellipse cx="0" cy="90" rx="45" ry="12" fill="#06b6d4" opacity="0.3"/>
    <rect x="-20" y="15" width="40" height="55" rx="4" fill="none" stroke="#06b6d4" stroke-width="2"/>
    <rect x="-16" y="19" width="32" height="47" rx="2" fill="#06b6d4" opacity="0.2"/>
    <circle cx="0" cy="-15" r="28" fill="none" stroke="#06b6d4" stroke-width="2"/>
    <circle cx="0" cy="-15" r="22" fill="#06b6d4" opacity="0.15"/>
    <line x1="-20" y1="22" x2="-42" y2="55" stroke="#06b6d4" stroke-width="2.5" stroke-linecap="round"/>
    <line x1="20" y1="22" x2="42" y2="55" stroke="#06b6d4" stroke-width="2.5" stroke-linecap="round"/>
    <line x1="-8" y1="70" x2="-15" y2="100" stroke="#06b6d4" stroke-width="2.5" stroke-linecap="round"/>
    <line x1="8" y1="70" x2="15" y2="100" stroke="#06b6d4" stroke-width="2.5" stroke-linecap="round"/>
  </g>
  
  <!-- Control buttons -->
  <rect x="15" y="560" width="175" height="45" rx="8" fill="#06b6d4"/>
  <text x="102" y="588" font-family="Arial" font-size="13" fill="white" text-anchor="middle">๐ท ุฏูุฑุจู ุฌูู</text>
  
  <rect x="200" y="560" width="175" height="45" rx="8" fill="#374151" stroke="#4b5563"/>
  <text x="287" y="588" font-family="Arial" font-size="13" fill="white" text-anchor="middle">๐ฑ๏ธ ููุณ</text>
  
  <rect x="15" y="615" width="360" height="45" rx="8" fill="#374151" stroke="#4b5563"/>
  <text x="195" y="643" font-family="Arial" font-size="13" fill="white" text-anchor="middle">๐ ุขูพููุฏ ูุฏู ุณูโุจุนุฏ</text>
  
  <!-- Camera preview (small) -->
  <rect x="280" y="155" width="85" height="65" rx="8" fill="#000" fill-opacity="0.8" stroke="#06b6d4"/>
  <text x="322" y="172" font-family="Arial" font-size="9" fill="#06b6d4" text-anchor="middle">๐ฑ Front</text>
  <ellipse cx="322" cy="200" rx="15" ry="20" fill="none" stroke="#06b6d4" stroke-width="1" stroke-dasharray="3,2"/>
  <circle cx="322" cy="200" r="8" fill="none" stroke="#00ff00" stroke-width="1"/>
  
  <!-- Footer -->
  <rect x="5" y="680" width="380" height="90" rx="0 0 36 36" fill="#000" fill-opacity="0.5"/>
  <text x="195" y="710" font-family="Arial" font-size="11" fill="#9ca3af" text-anchor="middle">ุงููุงู ุงุฒ ุชฺฉููููฺ ููููฺฏุฑุงู LCD</text>
  <text x="195" y="735" font-family="Arial" font-size="10" fill="url(#cyanMobile)" text-anchor="middle">ุงุฏูุ ุทุฑุงุญ ู ุชูุณุนู: ุงูุฑุณุงูุงู ูพุฑุงุดโูุฑ</text>
  
  <!-- Home indicator -->
  <rect x="140" y="815" width="110" height="5" rx="2.5" fill="#fff" opacity="0.5"/>
</svg>