<svg width="1200" height="675" xmlns="http://www.w3.org/2000/svg">
  <defs>
    <linearGradient id="bgUp" x1="0%" y1="0%" x2="100%" y2="100%">
      <stop offset="0%" style="stop-color:#111827"/>
      <stop offset="100%" style="stop-color:#1f2937"/>
    </linearGradient>
    <linearGradient id="cyanUp" x1="0%" y1="0%" x2="100%" y2="0%">
      <stop offset="0%" style="stop-color:#06b6d4"/>
      <stop offset="100%" style="stop-color:#8b5cf6"/>
    </linearGradient>
    <filter id="glowUp">
      <feGaussianBlur stdDeviation="2" result="coloredBlur"/>
      <feMerge><feMergeNode in="coloredBlur"/><feMergeNode in="SourceGraphic"/></feMerge>
    </filter>
  </defs>
  
  <!-- Background -->
  <rect width="1200" height="675" fill="url(#bgUp)"/>
  
  <!-- Dark overlay -->
  <rect width="1200" height="675" fill="#000" opacity="0.4"/>
  
  <!-- Header -->
  <rect x="0" y="0" width="1200" height="60" fill="#000" fill-opacity="0.3"/>
  <text x="30" y="38" font-family="Arial" font-size="20" font-weight="bold" fill="url(#cyanUp)">๐ฎ SETI@Portalgraph</text>
  
  <!-- Upload Modal -->
  <rect x="300" y="120" width="600" height="440" rx="15" fill="#1f2937" stroke="#374151" stroke-width="2"/>
  
  <!-- Modal Header -->
  <rect x="300" y="120" width="600" height="50" rx="15 15 0 0" fill="#111827"/>
  <text x="600" y="152" font-family="Arial" font-size="18" font-weight="bold" fill="white" text-anchor="middle">๐ ุขูพููุฏ ูุฏู ุณูโุจุนุฏ</text>
  <text x="870" y="152" font-family="Arial" font-size="20" fill="#9ca3af" text-anchor="middle" style="cursor:pointer">โ</text>
  
  <!-- Drop Zone -->
  <rect x="340" y="190" width="520" height="180" rx="10" fill="#111827" stroke="#4b5563" stroke-width="2" stroke-dasharray="8,4"/>
  
  <!-- Upload Icon -->
  <g transform="translate(600, 260)">
    <circle cx="0" cy="0" r="40" fill="#06b6d4" opacity="0.1"/>
    <path d="M -20 10 L 0 -15 L 20 10 M 0 -10 L 0 30" fill="none" stroke="#06b6d4" stroke-width="3" stroke-linecap="round"/>
    <line x1="-25" y1="30" x2="25" y2="30" stroke="#06b6d4" stroke-width="3" stroke-linecap="round"/>
  </g>
  
  <text x="600" y="330" font-family="Arial" font-size="14" fill="#9ca3af" text-anchor="middle">ูุงู ุฎูุฏ ุฑุง ุงูุฌุง ุฑูุง ฺฉูุฏ ุง ฺฉูฺฉ ฺฉูุฏ</text>
  <text x="600" y="355" font-family="Arial" font-size="12" fill="#6b7280" text-anchor="middle">Drag and drop your file here or click to browse</text>
  
  <!-- Supported Formats -->
  <rect x="340" y="390" width="520" height="80" rx="8" fill="#111827"/>
  <text x="360" y="420" font-family="Arial" font-size="13" fill="#9ca3af">ูุฑูุชโูุง ูพุดุชุจุงู ุดุฏู:</text>
  
  <!-- Format badges -->
  <g transform="translate(360, 440)">
    <rect x="0" y="0" width="60" height="28" rx="6" fill="#06b6d4" fill-opacity="0.2" stroke="#06b6d4"/>
    <text x="30" y="19" font-family="Arial" font-size="12" fill="#06b6d4" text-anchor="middle">.OBJ</text>
    
    <rect x="70" y="0" width="60" height="28" rx="6" fill="#8b5cf6" fill-opacity="0.2" stroke="#8b5cf6"/>
    <text x="100" y="19" font-family="Arial" font-size="12" fill="#8b5cf6" text-anchor="middle">.GLB</text>
    
    <rect x="140" y="0" width="60" height="28" rx="6" fill="#10b981" fill-opacity="0.2" stroke="#10b981"/>
    <text x="170" y="19" font-family="Arial" font-size="12" fill="#10b981" text-anchor="middle">.GLTF</text>
    
    <rect x="210" y="0" width="60" height="28" rx="6" fill="#f59e0b" fill-opacity="0.2" stroke="#f59e0b"/>
    <text x="240" y="19" font-family="Arial" font-size="12" fill="#f59e0b" text-anchor="middle">.FBX</text>
  </g>
  
  <!-- Auto-scale info -->
  <rect x="500" y="435" width="200" height="35" rx="6" fill="#10b981" fill-opacity="0.1" stroke="#10b981" stroke-width="1"/>
  <text x="600" y="457" font-family="Arial" font-size="11" fill="#10b981" text-anchor="middle">โ ููุงุณ ุฎูุฏฺฉุงุฑ ูุนุงู ุงุณุช</text>
  
  <!-- Upload Button -->
  <rect x="450" y="490" width="150" height="45" rx="8" fill="#06b6d4"/>
  <text x="525" y="518" font-family="Arial" font-size="14" fill="white" text-anchor="middle">ุงูุชุฎุงุจ ูุงู</text>
  
  <rect x="610" y="490" width="150" height="45" rx="8" fill="#374151" stroke="#4b5563"/>
  <text x="685" y="518" font-family="Arial" font-size="14" fill="#9ca3af" text-anchor="middle">ุงูุตุฑุงู</text>
  
  <!-- Footer -->
  <rect x="0" y="600" width="1200" height="75" fill="#000" fill-opacity="0.5"/>
  <text x="600" y="630" font-family="Arial" font-size="13" fill="#9ca3af" text-anchor="middle">Portalgraph - ุงููุงู ฺฏุฑูุชู ุงุฒ ุชฺฉููููฺ ูุงูุน ููููฺฏุฑุงู LCD</text>
  <text x="600" y="655" font-family="Arial" font-size="12" fill="url(#cyanUp)" text-anchor="middle">ุงุฏูุ ุทุฑุงุญ ู ุชูุณุนู: ุงูุฑุณุงูุงู ูพุฑุงุดโูุฑ</text>
</svg>
